HIERARCHY
ROOT SimulationBone
{
	OFFSET 0.000000 0.000000 0.000000
	CHANNELS 6 Xposition Yposition Zposition Zrotation Yrotation Xrotation 
	JOINT Hips
	{
		OFFSET 0.000000 0.000000 0.000000
		CHANNELS 6 Xposition Yposition Zposition Zrotation Yrotation Xrotation 
		JOINT LeftUpLeg
		{
			OFFSET 0.103454 1.857828 10.548502
			CHANNELS 3 Zrotation Yrotation Xrotation
			JOINT LeftLeg
			{
				OFFSET 43.500000 -0.000023 -0.000008
				CHANNELS 3 Zrotation Yrotation Xrotation
				JOINT LeftFoot
				{
					OFFSET 42.372192 0.000008 0.000008
					CHANNELS 3 Zrotation Yrotation Xrotation
					JOINT LeftToe
					{
						OFFSET 17.299997 -0.000001 0.000000
						CHANNELS 3 Zrotation Yrotation Xrotation
						End Site
						{
							OFFSET 0.000000 0.000000 0.000000
						}
					}
				}
			}
		}
		JOINT RightUpLeg
		{
			OFFSET 0.103459 1.857828 -10.548505
			CHANNELS 3 Zrotation Yrotation Xrotation
			JOINT RightLeg
			{
				OFFSET 43.500046 -0.000027 0.000015
				CHANNELS 3 Zrotation Yrotation Xrotation
				JOINT RightFoot
				{
					OFFSET 42.372261 -0.000008 0.000019
					CHANNELS 3 Zrotation Yrotation Xrotation
					JOINT RightToe
					{
						OFFSET 17.299992 -0.000006 -0.000002
						CHANNELS 3 Zrotation Yrotation Xrotation
						End Site
						{
							OFFSET 0.000000 0.000000 0.000000
						}
					}
				}
			}
		}
		JOINT Spine
		{
			OFFSET 6.901967 -2.603729 0.000006
			CHANNELS 3 Zrotation Yrotation Xrotation
			JOINT Spine1
			{
				OFFSET 12.588098 -0.000001 -0.000005
				CHANNELS 3 Zrotation Yrotation Xrotation
				JOINT Spine2
				{
					OFFSET 12.343207 0.000001 -0.000003
					CHANNELS 3 Zrotation Yrotation Xrotation
					JOINT Neck
					{
						OFFSET 25.832897 -0.000006 -0.000001
						CHANNELS 3 Zrotation Yrotation Xrotation
						JOINT Head
						{
							OFFSET 11.766602 0.000010 0.000005
							CHANNELS 3 Zrotation Yrotation Xrotation
							End Site
							{
								OFFSET 0.000000 0.000000 0.000000
							}
						}
					}
					JOINT LeftShoulder
					{
						OFFSET 19.745901 -1.480368 6.000114
						CHANNELS 3 Zrotation Yrotation Xrotation
						JOINT LeftArm
						{
							OFFSET 11.284125 -0.000009 -0.000026
							CHANNELS 3 Zrotation Yrotation Xrotation
							JOINT LeftForeArm
							{
								OFFSET 33.000046 0.000005 0.000037
								CHANNELS 3 Zrotation Yrotation Xrotation
								JOINT LeftHand
								{
									OFFSET 25.200003 0.000016 -0.000001
									CHANNELS 3 Zrotation Yrotation Xrotation
									End Site
									{
										OFFSET 0.000000 0.000000 0.000000
									}
								}
							}
						}
					}
					JOINT RightShoulder
					{
						OFFSET 19.746088 -1.480377 -6.000074
						CHANNELS 3 Zrotation Yrotation Xrotation
						JOINT RightArm
						{
							OFFSET 11.284132 -0.000015 -0.000021
							CHANNELS 3 Zrotation Yrotation Xrotation
							JOINT RightForeArm
							{
								OFFSET 33.000107 0.000015 0.000018
								CHANNELS 3 Zrotation Yrotation Xrotation
								JOINT RightHand
								{
									OFFSET 25.199774 0.000138 0.000420
									CHANNELS 3 Zrotation Yrotation Xrotation
									End Site
									{
										OFFSET 0.000000 0.000000 0.000000
									}
								}
							}
						}
					}
				}
			}
		}
	}
}
MOTION
Frames: 5
Frame Time: 0.016667
175.510119 0.000000 410.559109 0.000000 98.672658 0.000000 -5.646912 88.432877 1.536959 84.666141 1.609498 -177.698120 151.598083 8.146099 169.798653 -29.383784 3.611777 -4.803571 82.904343 4.485941 5.281935 21.454555 0.003113 0.000018 162.973627 9.242909 -166.779887 -75.990109 -1.228369 1.660414 69.945986 2.621385 10.931790 21.454560 -0.003092 0.000000 8.568086 -0.374971 0.912606 7.117170 -0.805158 1.800503 6.799209 -0.794407 1.805325 1.685942 -13.464880 3.337426 -30.587908 6.724551 -2.784767 178.216178 -80.744871 0.303812 9.214946 65.504933 26.860307 -39.391964 -12.568116 1.310957 7.311599 1.726348 15.891606 141.816002 84.946175 -36.837521 -59.229064 -48.779735 -6.666296 -30.531962 20.314951 -1.580261 11.628733 4.477144 4.940509 
175.302354 0.000000 409.073281 0.000000 100.093933 0.000000 -5.344312 88.843408 1.415578 85.026851 1.942215 -178.599875 153.429907 8.139740 170.983680 -29.062516 3.819879 -5.093839 83.623187 4.536253 4.814809 21.454558 0.003118 0.000018 160.608058 8.986034 -167.464140 -78.024645 -1.426842 2.572617 70.410696 1.887654 10.837051 21.454561 -0.003102 0.000005 8.547354 -0.229066 0.748260 7.078696 -0.503301 1.481146 6.760700 -0.494480 1.484155 2.088916 -13.088608 3.524838 -28.381637 6.764095 -2.299149 -179.546226 -80.638433 -1.964684 9.313891 65.013343 27.364322 -42.462208 -12.820702 1.408909 6.439844 3.023183 20.229670 143.846106 85.011442 -34.792090 -58.105890 -50.593973 -7.406511 -26.983640 16.811516 -1.274118 13.252303 0.802483 2.294334 
175.089933 0.000000 407.524354 0.000000 101.456246 0.000000 -5.079527 89.199898 1.350691 85.350155 2.208768 -179.314115 155.224177 8.111290 172.162827 -28.808907 3.894704 -5.319548 84.383332 4.563678 4.408650 21.454558 0.003111 0.000017 158.392510 8.687194 -168.129505 -79.386352 -1.551956 3.355136 70.498999 1.305230 10.800913 21.454558 -0.003099 0.000004 8.537237 -0.124285 0.608592 7.060154 -0.285321 1.208485 6.742128 -0.278151 1.210184 2.357919 -12.604143 3.492939 -26.938250 6.992652 -2.194633 -177.945894 -80.612208 -3.588592 9.573555 64.482195 27.733205 -45.777812 -12.881067 1.508631 5.397333 3.313639 23.359793 148.595280 84.972144 -30.018650 -55.820395 -52.689133 -8.510214 -24.295596 14.117873 -1.075069 15.032138 -2.004116 0.219058 
174.872119 0.000000 405.916808 0.000000 102.758265 0.000000 -4.857747 89.506654 1.332152 85.629981 2.436755 -179.868458 156.961634 8.004971 173.249055 -28.619905 3.852120 -5.434654 85.190593 4.536976 4.078867 21.454555 0.003101 0.000017 156.302085 8.354615 -168.814191 -80.110870 -1.608693 3.969854 70.367411 0.910075 10.903472 21.454553 -0.003092 0.000001 8.532207 -0.048073 0.489812 7.051028 -0.125770 0.975788 6.732979 -0.120012 0.976526 2.514053 -12.026169 3.285541 -26.150268 7.335849 -2.371235 -176.862746 -80.687495 -4.689177 9.934046 63.977712 27.942793 -49.175809 -12.754859 1.604816 4.192923 2.763357 25.248838 155.370740 84.819586 -23.209334 -52.320568 -54.960569 -10.418980 -22.394934 12.192235 -0.930796 16.661781 -3.912833 -1.083604 
174.648173 0.000000 404.255126 0.000000 103.999109 0.000000 -4.683160 89.767982 1.349724 85.857326 2.653868 179.709316 158.620803 7.770791 174.151792 -28.493161 3.708024 -5.392637 86.050889 4.424369 3.839893 21.454555 0.003099 0.000017 154.312236 7.993195 -169.556755 -80.234074 -1.596856 4.380786 70.172420 0.739399 11.220080 21.454550 -0.003088 -0.000001 8.526637 0.012095 0.388101 7.040413 0.000676 0.776209 6.722345 0.005223 0.776187 2.578491 -11.370599 2.946139 -25.911804 7.705878 -2.735404 -176.199715 -80.881836 -5.364693 10.341193 63.566841 27.974845 -52.492393 -12.447967 1.692185 2.905510 1.520351 25.865956 163.344231 84.543093 -15.191741 -47.477589 -57.258078 -13.639457 -21.230840 10.993910 -0.832540 17.846878 -4.910614 -1.386628 
